<svg xmlns="http://www.w3.org/2000/svg" width="48" height="48" viewBox="0 0 48 48" fill="none"><path d="M8.49994 39.4L18.3999 23.8L28.0999 29.4L18.0999 45.2C17.8999 45.6 17.2999 45.5 17.1999 45.1L15.2999 39C15.2999 38.9 15.1999 38.8 15.0999 38.9L8.99994 40.3C8.59994 40.3 8.29994 39.8 8.49994 39.4Z" fill="#E4EEF0"></path><path d="M39.5 39.4L29.6 23.8L20 29.4L30 45.2C30.2 45.6 30.8 45.5 30.9 45.1L32.7 39C32.7 38.9 32.8 38.8 32.9 38.9L39 40.3C39.4 40.3 39.8 39.8 39.5 39.4Z" fill="#E4EEF0"></path><path d="M40 18C40 26.8 32.8 34 24 34C15.2 34 8 26.8 8 18C8 9.2 15.2 2 24 2C32.8 2 40 9.2 40 18Z" fill="#E4EEF0"></path><path d="M33.9 30.6C37.6 27.6 40 23.1 40 18C40 9.2 32.8 2 24 2C15.2 2 8 9.2 8 18C8 23.1 10.4 27.7 14.1 30.6L8.5 39.4C8.3 39.8 8.6 40.3 9 40.2L15.1 38.8C15.2 38.8 15.3 38.8 15.3 38.9L17.2 45C17.3 45.4 17.9 45.5 18.1 45.1L24 35.8L29.9 45.1C30.1 45.5 30.7 45.4 30.8 45L32.6 38.9C32.6 38.8 32.7 38.7 32.8 38.8L38.8 40.2C39.2 40.3 39.6 39.8 39.3 39.4L33.9 30.6ZM17.9 43.7L16.3 38.6C16.1 38 15.5 37.6 14.9 37.8L10 38.9L14.9 31.2C17.2 32.8 19.9 33.8 22.9 34L23.5 34.9L17.9 43.7ZM23.5 33C23.1 33 22.7 33 22.3 32.9C19.8 32.6 17.5 31.7 15.5 30.3C15.2 30.1 15 29.9 14.7 29.7C11.2 27 9 22.8 9 18C9 9.7 15.7 3 24 3C32.3 3 39 9.7 39 18C39 22.7 36.8 27 33.4 29.7C33.1 29.9 32.9 30.1 32.6 30.3C30.7 31.6 28.4 32.5 26 32.9C25.6 33 25.2 33 24.7 33C24.5 33 24.2 33 24 33C23.8 33 23.7 33 23.5 33ZM33.2 37.8C32.6 37.6 32 38 31.8 38.6L30.3 43.6L24.7 34.8L24.1 34H24V33.9V34C24.4 34 24.8 34 25.1 34C28 33.8 30.7 32.8 32.9 31.2L38 39L33.2 37.8Z" fill="black"></path><path d="M23.0999 10.7C23.4999 10 24.4999 10 24.8999 10.7L26.4999 13.8C26.5999 14.1 26.8999 14.3 27.1999 14.3L30.6999 14.9C31.4999 15 31.7999 16 31.1999 16.6L28.7999 19.1C28.5999 19.3 28.4999 19.6 28.4999 19.9L28.9999 23.4C29.0999 24.2 28.2999 24.8 27.5999 24.4L24.4999 22.8C24.1999 22.7 23.8999 22.7 23.5999 22.8L20.4999 24.4C19.7999 24.8 18.8999 24.2 19.0999 23.4L19.5999 19.9C19.5999 19.6 19.4999 19.3 19.2999 19.1L16.8999 16.6C16.2999 16 16.6999 15.1 17.3999 14.9L20.8999 14.3C21.1999 14.2 21.4999 14.1 21.5999 13.8L23.0999 10.7Z" fill="white"></path><path d="M31.1999 16.6C31.7999 16 31.3999 15.1 30.6999 14.9L27.1999 14.3C26.8999 14.3 26.5999 14.1 26.4999 13.8L24.8999 10.7C24.4999 10 23.4999 10 23.0999 10.7L21.4999 13.8C21.3999 14.1 21.0999 14.3 20.7999 14.3L17.2999 14.9C16.4999 15 16.1999 16 16.7999 16.6L19.1999 19.1C19.3999 19.3 19.4999 19.6 19.4999 19.9L18.9999 23.4C18.8999 24.2 19.6999 24.8 20.3999 24.4L23.4999 22.9C23.7999 22.8 24.0999 22.8 24.3999 22.9L27.4999 24.4C28.1999 24.8 28.9999 24.2 28.8999 23.4L28.3999 19.9C28.3999 19.6 28.3999 19.3 28.6999 19.1L31.1999 16.6ZM28.0999 18.4C27.6999 18.8 27.4999 19.5 27.5999 20.1L28.0999 23.6L24.8999 22C24.2999 21.7 23.6999 21.7 23.0999 22L19.9999 23.5L20.4999 20C20.5999 19.4 20.3999 18.8 19.9999 18.3L17.4999 15.8L20.9999 15.2C21.5999 15.1 22.1999 14.7 22.3999 14.2L23.9999 11.1L25.5999 14.2C25.8999 14.8 26.3999 15.1 26.9999 15.2L30.4999 15.8L28.0999 18.4Z" fill="black"></path></svg>